<svg xmlns="http://www.w3.org/2000/svg" viewBox="0 0 512 512">
  <defs>
    <linearGradient id="bg" x1="0" y1="0" x2="1" y2="1">
      <stop offset="0" stop-color="#c7b8ea" />
      <stop offset="1" stop-color="#a99cd4" />
    </linearGradient>
  </defs>

  <rect x="32" y="32" width="448" height="448" rx="96" fill="url(#bg)" />

  <!-- Lucide BookOpen icon (same as header) -->
  <g transform="translate(0 0)">
    <g transform="translate(128 128) scale(10.6666667)">
      <path d="M12 7v14" fill="none" stroke="#ffffff" stroke-width="2.2" stroke-linecap="round" stroke-linejoin="round"/>
      <path d="M3 18a1 1 0 0 1-1-1V4a1 1 0 0 1 1-1h5a4 4 0 0 1 4 4 4 4 0 0 1 4-4h5a1 1 0 0 1 1 1v13a1 1 0 0 1-1 1h-6a3 3 0 0 0-3 3 3 3 0 0 0-3-3z" fill="none" stroke="#ffffff" stroke-width="2.2" stroke-linecap="round" stroke-linejoin="round"/>
    </g>
  </g>
</svg>

